<svg width="631" height="72" viewBox="0 0 631 72" fill="none" xmlns="http://www.w3.org/2000/svg">
<g filter="url(#filter0_d_2_10)">
<rect x="4" width="623" height="64" rx="9" fill="white"/>
<path d="M584.761 15.0713V17.1631H584.515C583.366 17.1807 582.44 17.4795 581.737 18.0596C581.04 18.6396 580.621 19.4453 580.48 20.4766C581.16 19.7852 582.019 19.4395 583.056 19.4395C584.169 19.4395 585.054 19.8379 585.71 20.6348C586.366 21.4316 586.694 22.4805 586.694 23.7812C586.694 24.6133 586.513 25.3662 586.149 26.04C585.792 26.7139 585.282 27.2383 584.62 27.6133C583.964 27.9883 583.22 28.1758 582.388 28.1758C581.04 28.1758 579.95 27.707 579.118 26.7695C578.292 25.832 577.879 24.5811 577.879 23.0166V22.1025C577.879 20.7139 578.14 19.4893 578.661 18.4287C579.188 17.3623 579.941 16.5391 580.92 15.959C581.904 15.373 583.044 15.0771 584.339 15.0713H584.761ZM582.282 21.4785C581.872 21.4785 581.5 21.5869 581.166 21.8037C580.832 22.0146 580.586 22.2959 580.428 22.6475V23.4209C580.428 24.2705 580.595 24.9355 580.929 25.416C581.263 25.8906 581.731 26.1279 582.335 26.1279C582.88 26.1279 583.319 25.9141 583.653 25.4863C583.993 25.0527 584.163 24.4932 584.163 23.8076C584.163 23.1104 583.993 22.5479 583.653 22.1201C583.313 21.6924 582.856 21.4785 582.282 21.4785ZM588.584 21.707L589.322 15.2031H596.494V17.3213H591.405L591.089 20.0723C591.692 19.75 592.334 19.5889 593.014 19.5889C594.232 19.5889 595.188 19.9668 595.879 20.7227C596.57 21.4785 596.916 22.5361 596.916 23.8955C596.916 24.7217 596.74 25.4629 596.389 26.1191C596.043 26.7695 595.545 27.2764 594.895 27.6396C594.244 27.9971 593.477 28.1758 592.592 28.1758C591.818 28.1758 591.101 28.0205 590.438 27.71C589.776 27.3936 589.252 26.9512 588.865 26.3828C588.484 25.8145 588.282 25.167 588.259 24.4404H590.772C590.825 24.9736 591.01 25.3896 591.326 25.6885C591.648 25.9814 592.067 26.1279 592.583 26.1279C593.157 26.1279 593.6 25.9229 593.91 25.5127C594.221 25.0967 594.376 24.5107 594.376 23.7549C594.376 23.0283 594.197 22.4717 593.84 22.085C593.482 21.6982 592.976 21.5049 592.319 21.5049C591.716 21.5049 591.227 21.6631 590.852 21.9795L590.605 22.208L588.584 21.707ZM598.507 17.6641C598.507 16.8789 598.762 16.2432 599.271 15.7568C599.781 15.2646 600.449 15.0186 601.275 15.0186C602.113 15.0186 602.787 15.2617 603.297 15.748C603.807 16.2285 604.062 16.8818 604.062 17.708V18.3408C604.062 19.1318 603.807 19.7676 603.297 20.248C602.787 20.7285 602.119 20.9688 601.293 20.9688C600.461 20.9688 599.787 20.7285 599.271 20.248C598.762 19.7617 598.507 19.1084 598.507 18.2881V17.6641ZM600.194 18.3408C600.194 18.6924 600.294 18.9766 600.493 19.1934C600.698 19.4043 600.965 19.5098 601.293 19.5098C601.621 19.5098 601.882 19.4014 602.075 19.1846C602.269 18.9678 602.365 18.6777 602.365 18.3145V17.6641C602.365 17.3125 602.269 17.0283 602.075 16.8115C601.882 16.5947 601.615 16.4863 601.275 16.4863C600.953 16.4863 600.692 16.5947 600.493 16.8115C600.294 17.0225 600.194 17.3184 600.194 17.6992V18.3408ZM604.624 24.8623C604.624 24.0713 604.882 23.4355 605.397 22.9551C605.913 22.4688 606.581 22.2256 607.401 22.2256C608.233 22.2256 608.904 22.4658 609.414 22.9463C609.93 23.4209 610.188 24.0771 610.188 24.915V25.5479C610.188 26.333 609.936 26.9688 609.432 27.4551C608.928 27.9355 608.257 28.1758 607.419 28.1758C606.575 28.1758 605.898 27.9326 605.389 27.4463C604.879 26.96 604.624 26.3154 604.624 25.5127V24.8623ZM606.312 25.5479C606.312 25.8701 606.417 26.1455 606.628 26.374C606.839 26.6025 607.103 26.7168 607.419 26.7168C608.134 26.7168 608.491 26.3213 608.491 25.5303V24.8623C608.491 24.5107 608.392 24.2295 608.192 24.0186C607.993 23.8018 607.729 23.6934 607.401 23.6934C607.073 23.6934 606.81 23.8018 606.61 24.0186C606.411 24.2295 606.312 24.5195 606.312 24.8887V25.5479ZM601.794 27.042L600.555 26.374L606.804 16.3721L608.043 17.04L601.794 27.042Z" fill="black"/>
<path d="M60.1885 23.7373C60.0889 25.1143 59.5791 26.1982 58.6592 26.9893C57.7451 27.7803 56.5381 28.1758 55.0381 28.1758C53.3975 28.1758 52.1055 27.625 51.1621 26.5234C50.2246 25.416 49.7559 23.8984 49.7559 21.9707V21.1885C49.7559 19.958 49.9727 18.874 50.4062 17.9365C50.8398 16.999 51.458 16.2812 52.2607 15.7832C53.0693 15.2793 54.0068 15.0273 55.0732 15.0273C56.5498 15.0273 57.7393 15.4229 58.6416 16.2139C59.5439 17.0049 60.0654 18.1152 60.2061 19.5449H57.5693C57.5049 18.7188 57.2734 18.1211 56.875 17.752C56.4824 17.377 55.8818 17.1895 55.0732 17.1895C54.1943 17.1895 53.5352 17.5059 53.0957 18.1387C52.6621 18.7656 52.4395 19.7412 52.4277 21.0654V22.0322C52.4277 23.415 52.6357 24.4258 53.0518 25.0645C53.4736 25.7031 54.1357 26.0225 55.0381 26.0225C55.8525 26.0225 56.459 25.8379 56.8574 25.4688C57.2617 25.0938 57.4932 24.5166 57.5518 23.7373H60.1885ZM68.5557 24.6426C68.5557 24.1445 68.3799 23.7637 68.0283 23.5C67.6768 23.2305 67.0439 22.9492 66.1299 22.6562C65.2158 22.3574 64.4922 22.0645 63.959 21.7773C62.5059 20.9922 61.7793 19.9346 61.7793 18.6045C61.7793 17.9131 61.9727 17.2979 62.3594 16.7588C62.752 16.2139 63.3115 15.7891 64.0381 15.4844C64.7705 15.1797 65.5908 15.0273 66.499 15.0273C67.4131 15.0273 68.2275 15.1943 68.9424 15.5283C69.6572 15.8564 70.2109 16.3223 70.6035 16.9258C71.002 17.5293 71.2012 18.2148 71.2012 18.9824H68.5645C68.5645 18.3965 68.3799 17.9424 68.0107 17.6201C67.6416 17.292 67.123 17.1279 66.4551 17.1279C65.8105 17.1279 65.3096 17.2656 64.9521 17.541C64.5947 17.8105 64.416 18.168 64.416 18.6133C64.416 19.0293 64.624 19.3779 65.04 19.6592C65.4619 19.9404 66.0801 20.2041 66.8945 20.4502C68.3945 20.9014 69.4873 21.4609 70.1729 22.1289C70.8584 22.7969 71.2012 23.6289 71.2012 24.625C71.2012 25.7324 70.7822 26.6025 69.9443 27.2354C69.1064 27.8623 67.9785 28.1758 66.5605 28.1758C65.5762 28.1758 64.6797 27.9971 63.8711 27.6396C63.0625 27.2764 62.4443 26.7812 62.0166 26.1543C61.5947 25.5273 61.3838 24.8008 61.3838 23.9746H64.0293C64.0293 25.3867 64.873 26.0928 66.5605 26.0928C67.1875 26.0928 67.6768 25.9668 68.0283 25.7148C68.3799 25.457 68.5557 25.0996 68.5557 24.6426ZM79.6299 24.6426C79.6299 24.1445 79.4541 23.7637 79.1025 23.5C78.751 23.2305 78.1182 22.9492 77.2041 22.6562C76.29 22.3574 75.5664 22.0645 75.0332 21.7773C73.5801 20.9922 72.8535 19.9346 72.8535 18.6045C72.8535 17.9131 73.0469 17.2979 73.4336 16.7588C73.8262 16.2139 74.3857 15.7891 75.1123 15.4844C75.8447 15.1797 76.665 15.0273 77.5732 15.0273C78.4873 15.0273 79.3018 15.1943 80.0166 15.5283C80.7314 15.8564 81.2852 16.3223 81.6777 16.9258C82.0762 17.5293 82.2754 18.2148 82.2754 18.9824H79.6387C79.6387 18.3965 79.4541 17.9424 79.085 17.6201C78.7158 17.292 78.1973 17.1279 77.5293 17.1279C76.8848 17.1279 76.3838 17.2656 76.0264 17.541C75.6689 17.8105 75.4902 18.168 75.4902 18.6133C75.4902 19.0293 75.6982 19.3779 76.1143 19.6592C76.5361 19.9404 77.1543 20.2041 77.9688 20.4502C79.4688 20.9014 80.5615 21.4609 81.2471 22.1289C81.9326 22.7969 82.2754 23.6289 82.2754 24.625C82.2754 25.7324 81.8564 26.6025 81.0186 27.2354C80.1807 27.8623 79.0527 28.1758 77.6348 28.1758C76.6504 28.1758 75.7539 27.9971 74.9453 27.6396C74.1367 27.2764 73.5186 26.7812 73.0908 26.1543C72.6689 25.5273 72.458 24.8008 72.458 23.9746H75.1035C75.1035 25.3867 75.9473 26.0928 77.6348 26.0928C78.2617 26.0928 78.751 25.9668 79.1025 25.7148C79.4541 25.457 79.6299 25.0996 79.6299 24.6426ZM86.3799 20.4766H87.7334C88.3779 20.4766 88.8555 20.3154 89.166 19.9932C89.4766 19.6709 89.6318 19.2432 89.6318 18.71C89.6318 18.1943 89.4766 17.793 89.166 17.5059C88.8613 17.2188 88.4395 17.0752 87.9004 17.0752C87.4141 17.0752 87.0068 17.21 86.6787 17.4795C86.3506 17.7432 86.1865 18.0889 86.1865 18.5166H83.6465C83.6465 17.8486 83.8252 17.251 84.1826 16.7236C84.5459 16.1904 85.0498 15.7744 85.6943 15.4756C86.3447 15.1768 87.0596 15.0273 87.8389 15.0273C89.1924 15.0273 90.2529 15.3525 91.0205 16.0029C91.7881 16.6475 92.1719 17.5381 92.1719 18.6748C92.1719 19.2607 91.9932 19.7998 91.6357 20.292C91.2783 20.7842 90.8096 21.1621 90.2295 21.4258C90.9502 21.6836 91.4863 22.0703 91.8379 22.5859C92.1953 23.1016 92.374 23.7109 92.374 24.4141C92.374 25.5508 91.958 26.4619 91.126 27.1475C90.2998 27.833 89.2041 28.1758 87.8389 28.1758C86.5615 28.1758 85.5156 27.8389 84.7012 27.165C83.8926 26.4912 83.4883 25.6006 83.4883 24.4932H86.0283C86.0283 24.9736 86.207 25.3662 86.5645 25.6709C86.9277 25.9756 87.373 26.1279 87.9004 26.1279C88.5039 26.1279 88.9756 25.9697 89.3154 25.6533C89.6611 25.3311 89.834 24.9062 89.834 24.3789C89.834 23.1016 89.1309 22.4629 87.7246 22.4629H86.3799V20.4766Z" fill="black"/>
<rect x="4" y="53" width="387" height="11" fill="#8700FF"/>
<path d="M18.4627 7.84546H42.5358L40.3466 32.5645L30.4738 35.358L20.6549 32.563L18.4627 7.84546ZM38.0542 12.9037L22.9458 12.9006L23.1894 15.9053L34.7966 15.9084L34.5053 19.0225H26.8925L27.1685 21.9718H34.2555L33.8362 26.0109L30.5 26.9328L27.113 26.0032L26.8956 23.5843H23.9048L24.2378 28.0043L30.5 29.9545L36.659 28.2016L38.0542 12.9037V12.9037Z" fill="#8700FF"/>
</g>
<defs>
<filter id="filter0_d_2_10" x="0" y="0" width="631" height="72" filterUnits="userSpaceOnUse" color-interpolation-filters="sRGB">
<feFlood flood-opacity="0" result="BackgroundImageFix"/>
<feColorMatrix in="SourceAlpha" type="matrix" values="0 0 0 0 0 0 0 0 0 0 0 0 0 0 0 0 0 0 127 0" result="hardAlpha"/>
<feOffset dy="4"/>
<feGaussianBlur stdDeviation="2"/>
<feComposite in2="hardAlpha" operator="out"/>
<feColorMatrix type="matrix" values="0 0 0 0 0 0 0 0 0 0 0 0 0 0 0 0 0 0 0.4 0"/>
<feBlend mode="normal" in2="BackgroundImageFix" result="effect1_dropShadow_2_10"/>
<feBlend mode="normal" in="SourceGraphic" in2="effect1_dropShadow_2_10" result="shape"/>
</filter>
</defs>
</svg>
