<svg width="631" height="72" viewBox="0 0 631 72" fill="none" xmlns="http://www.w3.org/2000/svg">
<g filter="url(#filter0_d_2_10)">
<rect x="4" width="623" height="64" rx="9" fill="white"/>
<path d="M586.211 18.6045C586.211 19.2256 586.056 19.7764 585.745 20.2568C585.435 20.7373 585.007 21.1211 584.462 21.4082C585.083 21.707 585.575 22.1201 585.938 22.6475C586.302 23.1689 586.483 23.7842 586.483 24.4932C586.483 25.6299 586.097 26.5293 585.323 27.1914C584.55 27.8477 583.498 28.1758 582.168 28.1758C580.838 28.1758 579.783 27.8447 579.004 27.1826C578.225 26.5205 577.835 25.624 577.835 24.4932C577.835 23.7842 578.017 23.166 578.38 22.6387C578.743 22.1113 579.232 21.7012 579.848 21.4082C579.303 21.1211 578.875 20.7373 578.564 20.2568C578.26 19.7764 578.107 19.2256 578.107 18.6045C578.107 17.5146 578.471 16.6475 579.197 16.0029C579.924 15.3525 580.911 15.0273 582.159 15.0273C583.401 15.0273 584.386 15.3496 585.112 15.9941C585.845 16.6328 586.211 17.5029 586.211 18.6045ZM583.935 24.3086C583.935 23.752 583.773 23.3066 583.451 22.9727C583.129 22.6387 582.695 22.4717 582.15 22.4717C581.611 22.4717 581.181 22.6387 580.858 22.9727C580.536 23.3008 580.375 23.7461 580.375 24.3086C580.375 24.8535 580.533 25.293 580.85 25.627C581.166 25.9609 581.605 26.1279 582.168 26.1279C582.719 26.1279 583.149 25.9668 583.46 25.6445C583.776 25.3223 583.935 24.877 583.935 24.3086ZM583.671 18.7275C583.671 18.2295 583.539 17.8311 583.275 17.5322C583.012 17.2275 582.64 17.0752 582.159 17.0752C581.685 17.0752 581.315 17.2217 581.052 17.5146C580.788 17.8076 580.656 18.2119 580.656 18.7275C580.656 19.2373 580.788 19.6475 581.052 19.958C581.315 20.2686 581.688 20.4238 582.168 20.4238C582.648 20.4238 583.018 20.2686 583.275 19.958C583.539 19.6475 583.671 19.2373 583.671 18.7275ZM596.819 22.709C596.819 24.4785 596.453 25.832 595.721 26.7695C594.988 27.707 593.916 28.1758 592.504 28.1758C591.109 28.1758 590.043 27.7158 589.305 26.7959C588.566 25.876 588.188 24.5576 588.171 22.8408V20.4854C588.171 18.6982 588.54 17.3418 589.278 16.416C590.022 15.4902 591.092 15.0273 592.486 15.0273C593.881 15.0273 594.947 15.4873 595.686 16.4072C596.424 17.3213 596.802 18.6367 596.819 20.3535V22.709ZM594.279 20.125C594.279 19.0645 594.133 18.2939 593.84 17.8135C593.553 17.3271 593.102 17.084 592.486 17.084C591.889 17.084 591.446 17.3154 591.159 17.7783C590.878 18.2354 590.729 18.9531 590.711 19.9316V23.043C590.711 24.0859 590.852 24.8623 591.133 25.3721C591.42 25.876 591.877 26.1279 592.504 26.1279C593.125 26.1279 593.573 25.8848 593.849 25.3984C594.124 24.9121 594.268 24.168 594.279 23.166V20.125ZM598.507 17.6641C598.507 16.8789 598.762 16.2432 599.271 15.7568C599.781 15.2646 600.449 15.0186 601.275 15.0186C602.113 15.0186 602.787 15.2617 603.297 15.748C603.807 16.2285 604.062 16.8818 604.062 17.708V18.3408C604.062 19.1318 603.807 19.7676 603.297 20.248C602.787 20.7285 602.119 20.9688 601.293 20.9688C600.461 20.9688 599.787 20.7285 599.271 20.248C598.762 19.7617 598.507 19.1084 598.507 18.2881V17.6641ZM600.194 18.3408C600.194 18.6924 600.294 18.9766 600.493 19.1934C600.698 19.4043 600.965 19.5098 601.293 19.5098C601.621 19.5098 601.882 19.4014 602.075 19.1846C602.269 18.9678 602.365 18.6777 602.365 18.3145V17.6641C602.365 17.3125 602.269 17.0283 602.075 16.8115C601.882 16.5947 601.615 16.4863 601.275 16.4863C600.953 16.4863 600.692 16.5947 600.493 16.8115C600.294 17.0225 600.194 17.3184 600.194 17.6992V18.3408ZM604.624 24.8623C604.624 24.0713 604.882 23.4355 605.397 22.9551C605.913 22.4688 606.581 22.2256 607.401 22.2256C608.233 22.2256 608.904 22.4658 609.414 22.9463C609.93 23.4209 610.188 24.0771 610.188 24.915V25.5479C610.188 26.333 609.936 26.9688 609.432 27.4551C608.928 27.9355 608.257 28.1758 607.419 28.1758C606.575 28.1758 605.898 27.9326 605.389 27.4463C604.879 26.96 604.624 26.3154 604.624 25.5127V24.8623ZM606.312 25.5479C606.312 25.8701 606.417 26.1455 606.628 26.374C606.839 26.6025 607.103 26.7168 607.419 26.7168C608.134 26.7168 608.491 26.3213 608.491 25.5303V24.8623C608.491 24.5107 608.392 24.2295 608.192 24.0186C607.993 23.8018 607.729 23.6934 607.401 23.6934C607.073 23.6934 606.81 23.8018 606.61 24.0186C606.411 24.2295 606.312 24.5195 606.312 24.8887V25.5479ZM601.794 27.042L600.555 26.374L606.804 16.3721L608.043 17.04L601.794 27.042Z" fill="black"/>
<path d="M60.5576 28H57.9209V22.5156H52.7793V28H50.1426V15.2031H52.7793V20.3887H57.9209V15.2031H60.5576V28ZM72.2383 17.3389H68.3184V28H65.6816V17.3389H61.8145V15.2031H72.2383V17.3389ZM77.1953 15.2031L80.4824 24.4844L83.752 15.2031H87.2148V28H84.5693V24.502L84.833 18.4639L81.3789 28H79.5684L76.123 18.4727L76.3867 24.502V28H73.75V15.2031H77.1953ZM92.1543 25.8818H97.7529V28H89.5176V15.2031H92.1543V25.8818ZM99.3789 21.707L100.117 15.2031H107.289V17.3213H102.2L101.884 20.0723C102.487 19.75 103.129 19.5889 103.809 19.5889C105.027 19.5889 105.982 19.9668 106.674 20.7227C107.365 21.4785 107.711 22.5361 107.711 23.8955C107.711 24.7217 107.535 25.4629 107.184 26.1191C106.838 26.7695 106.34 27.2764 105.689 27.6396C105.039 27.9971 104.271 28.1758 103.387 28.1758C102.613 28.1758 101.896 28.0205 101.233 27.71C100.571 27.3936 100.047 26.9512 99.6602 26.3828C99.2793 25.8145 99.0771 25.167 99.0537 24.4404H101.567C101.62 24.9736 101.805 25.3896 102.121 25.6885C102.443 25.9814 102.862 26.1279 103.378 26.1279C103.952 26.1279 104.395 25.9229 104.705 25.5127C105.016 25.0967 105.171 24.5107 105.171 23.7549C105.171 23.0283 104.992 22.4717 104.635 22.085C104.277 21.6982 103.771 21.5049 103.114 21.5049C102.511 21.5049 102.021 21.6631 101.646 21.9795L101.4 22.208L99.3789 21.707Z" fill="black"/>
<rect x="4" y="53" width="488" height="11" fill="#8700FF"/>
<path d="M18.3763 7.6435H42.6252L40.4191 32.5414L30.4738 35.3565L20.5856 32.5414L18.3763 7.6435V7.6435ZM26.4948 18.9008L26.2281 15.7635L37.8414 15.7665L38.1081 12.7403L22.8919 12.7372L23.6966 21.9841H34.2339L33.8593 25.94L30.5 26.8681L27.0868 25.9354L26.8694 23.4995H23.857L24.2378 28.3142L30.5 29.9884L36.7098 28.3234L37.5701 18.9023H26.4948V18.9008V18.9008Z" fill="#8700FF"/>
</g>
<defs>
<filter id="filter0_d_2_10" x="0" y="0" width="631" height="72" filterUnits="userSpaceOnUse" color-interpolation-filters="sRGB">
<feFlood flood-opacity="0" result="BackgroundImageFix"/>
<feColorMatrix in="SourceAlpha" type="matrix" values="0 0 0 0 0 0 0 0 0 0 0 0 0 0 0 0 0 0 127 0" result="hardAlpha"/>
<feOffset dy="4"/>
<feGaussianBlur stdDeviation="2"/>
<feComposite in2="hardAlpha" operator="out"/>
<feColorMatrix type="matrix" values="0 0 0 0 0 0 0 0 0 0 0 0 0 0 0 0 0 0 0.4 0"/>
<feBlend mode="normal" in2="BackgroundImageFix" result="effect1_dropShadow_2_10"/>
<feBlend mode="normal" in="SourceGraphic" in2="effect1_dropShadow_2_10" result="shape"/>
</filter>
</defs>
</svg>
