<svg width="631" height="72" viewBox="0 0 631 72" fill="none" xmlns="http://www.w3.org/2000/svg">
<g filter="url(#filter0_d_2_10)">
<rect x="4" width="623" height="64" rx="9" fill="white"/>
<path d="M586.642 28H577.87V26.2598L582.01 21.8477C582.578 21.2266 582.997 20.6846 583.267 20.2217C583.542 19.7588 583.68 19.3193 583.68 18.9033C583.68 18.335 583.536 17.8896 583.249 17.5674C582.962 17.2393 582.552 17.0752 582.019 17.0752C581.444 17.0752 580.99 17.2744 580.656 17.6729C580.328 18.0654 580.164 18.584 580.164 19.2285H577.615C577.615 18.4492 577.8 17.7373 578.169 17.0928C578.544 16.4482 579.071 15.9443 579.751 15.5811C580.431 15.2119 581.201 15.0273 582.062 15.0273C583.381 15.0273 584.403 15.3438 585.13 15.9766C585.862 16.6094 586.229 17.5029 586.229 18.6572C586.229 19.29 586.064 19.9346 585.736 20.5908C585.408 21.2471 584.846 22.0117 584.049 22.8848L581.14 25.9521H586.642V28ZM588.584 21.707L589.322 15.2031H596.494V17.3213H591.405L591.089 20.0723C591.692 19.75 592.334 19.5889 593.014 19.5889C594.232 19.5889 595.188 19.9668 595.879 20.7227C596.57 21.4785 596.916 22.5361 596.916 23.8955C596.916 24.7217 596.74 25.4629 596.389 26.1191C596.043 26.7695 595.545 27.2764 594.895 27.6396C594.244 27.9971 593.477 28.1758 592.592 28.1758C591.818 28.1758 591.101 28.0205 590.438 27.71C589.776 27.3936 589.252 26.9512 588.865 26.3828C588.484 25.8145 588.282 25.167 588.259 24.4404H590.772C590.825 24.9736 591.01 25.3896 591.326 25.6885C591.648 25.9814 592.067 26.1279 592.583 26.1279C593.157 26.1279 593.6 25.9229 593.91 25.5127C594.221 25.0967 594.376 24.5107 594.376 23.7549C594.376 23.0283 594.197 22.4717 593.84 22.085C593.482 21.6982 592.976 21.5049 592.319 21.5049C591.716 21.5049 591.227 21.6631 590.852 21.9795L590.605 22.208L588.584 21.707ZM598.507 17.6641C598.507 16.8789 598.762 16.2432 599.271 15.7568C599.781 15.2646 600.449 15.0186 601.275 15.0186C602.113 15.0186 602.787 15.2617 603.297 15.748C603.807 16.2285 604.062 16.8818 604.062 17.708V18.3408C604.062 19.1318 603.807 19.7676 603.297 20.248C602.787 20.7285 602.119 20.9688 601.293 20.9688C600.461 20.9688 599.787 20.7285 599.271 20.248C598.762 19.7617 598.507 19.1084 598.507 18.2881V17.6641ZM600.194 18.3408C600.194 18.6924 600.294 18.9766 600.493 19.1934C600.698 19.4043 600.965 19.5098 601.293 19.5098C601.621 19.5098 601.882 19.4014 602.075 19.1846C602.269 18.9678 602.365 18.6777 602.365 18.3145V17.6641C602.365 17.3125 602.269 17.0283 602.075 16.8115C601.882 16.5947 601.615 16.4863 601.275 16.4863C600.953 16.4863 600.692 16.5947 600.493 16.8115C600.294 17.0225 600.194 17.3184 600.194 17.6992V18.3408ZM604.624 24.8623C604.624 24.0713 604.882 23.4355 605.397 22.9551C605.913 22.4688 606.581 22.2256 607.401 22.2256C608.233 22.2256 608.904 22.4658 609.414 22.9463C609.93 23.4209 610.188 24.0771 610.188 24.915V25.5479C610.188 26.333 609.936 26.9688 609.432 27.4551C608.928 27.9355 608.257 28.1758 607.419 28.1758C606.575 28.1758 605.898 27.9326 605.389 27.4463C604.879 26.96 604.624 26.3154 604.624 25.5127V24.8623ZM606.312 25.5479C606.312 25.8701 606.417 26.1455 606.628 26.374C606.839 26.6025 607.103 26.7168 607.419 26.7168C608.134 26.7168 608.491 26.3213 608.491 25.5303V24.8623C608.491 24.5107 608.392 24.2295 608.192 24.0186C607.993 23.8018 607.729 23.6934 607.401 23.6934C607.073 23.6934 606.81 23.8018 606.61 24.0186C606.411 24.2295 606.312 24.5195 606.312 24.8887V25.5479ZM601.794 27.042L600.555 26.374L606.804 16.3721L608.043 17.04L601.794 27.042Z" fill="black"/>
<path d="M55.3018 15.2031H57.9385V24.0625C57.9385 24.877 57.7568 25.5977 57.3936 26.2246C57.0361 26.8457 56.5293 27.3262 55.873 27.666C55.2168 28.0059 54.4756 28.1758 53.6494 28.1758C52.2959 28.1758 51.2412 27.833 50.4854 27.1475C49.7295 26.4561 49.3516 25.4805 49.3516 24.2207H52.0059C52.0059 24.8477 52.1377 25.3105 52.4014 25.6094C52.665 25.9082 53.0811 26.0576 53.6494 26.0576C54.1533 26.0576 54.5547 25.8848 54.8535 25.5391C55.1523 25.1934 55.3018 24.7012 55.3018 24.0625V15.2031ZM67.2285 25.3633H62.6055L61.7266 28H58.9229L63.6865 15.2031H66.1299L70.9199 28H68.1162L67.2285 25.3633ZM63.3174 23.2275H66.5166L64.9082 18.4375L63.3174 23.2275ZM76.1582 24.8271L79.0586 15.2031H81.9941L77.5381 28H74.7871L70.3486 15.2031H73.2754L76.1582 24.8271ZM89.7637 25.3633H85.1406L84.2617 28H81.458L86.2217 15.2031H88.665L93.4551 28H90.6514L89.7637 25.3633ZM85.8525 23.2275H89.0518L87.4434 18.4375L85.8525 23.2275ZM101.286 24.6426C101.286 24.1445 101.11 23.7637 100.759 23.5C100.407 23.2305 99.7744 22.9492 98.8604 22.6562C97.9463 22.3574 97.2227 22.0645 96.6895 21.7773C95.2363 20.9922 94.5098 19.9346 94.5098 18.6045C94.5098 17.9131 94.7031 17.2979 95.0898 16.7588C95.4824 16.2139 96.042 15.7891 96.7686 15.4844C97.501 15.1797 98.3213 15.0273 99.2295 15.0273C100.144 15.0273 100.958 15.1943 101.673 15.5283C102.388 15.8564 102.941 16.3223 103.334 16.9258C103.732 17.5293 103.932 18.2148 103.932 18.9824H101.295C101.295 18.3965 101.11 17.9424 100.741 17.6201C100.372 17.292 99.8535 17.1279 99.1855 17.1279C98.541 17.1279 98.04 17.2656 97.6826 17.541C97.3252 17.8105 97.1465 18.168 97.1465 18.6133C97.1465 19.0293 97.3545 19.3779 97.7705 19.6592C98.1924 19.9404 98.8105 20.2041 99.625 20.4502C101.125 20.9014 102.218 21.4609 102.903 22.1289C103.589 22.7969 103.932 23.6289 103.932 24.625C103.932 25.7324 103.513 26.6025 102.675 27.2354C101.837 27.8623 100.709 28.1758 99.291 28.1758C98.3066 28.1758 97.4102 27.9971 96.6016 27.6396C95.793 27.2764 95.1748 26.7812 94.7471 26.1543C94.3252 25.5273 94.1143 24.8008 94.1143 23.9746H96.7598C96.7598 25.3867 97.6035 26.0928 99.291 26.0928C99.918 26.0928 100.407 25.9668 100.759 25.7148C101.11 25.457 101.286 25.0996 101.286 24.6426ZM115.771 23.7373C115.671 25.1143 115.161 26.1982 114.241 26.9893C113.327 27.7803 112.12 28.1758 110.62 28.1758C108.979 28.1758 107.688 27.625 106.744 26.5234C105.807 25.416 105.338 23.8984 105.338 21.9707V21.1885C105.338 19.958 105.555 18.874 105.988 17.9365C106.422 16.999 107.04 16.2812 107.843 15.7832C108.651 15.2793 109.589 15.0273 110.655 15.0273C112.132 15.0273 113.321 15.4229 114.224 16.2139C115.126 17.0049 115.647 18.1152 115.788 19.5449H113.151C113.087 18.7188 112.855 18.1211 112.457 17.752C112.064 17.377 111.464 17.1895 110.655 17.1895C109.776 17.1895 109.117 17.5059 108.678 18.1387C108.244 18.7656 108.021 19.7412 108.01 21.0654V22.0322C108.01 23.415 108.218 24.4258 108.634 25.0645C109.056 25.7031 109.718 26.0225 110.62 26.0225C111.435 26.0225 112.041 25.8379 112.439 25.4688C112.844 25.0938 113.075 24.5166 113.134 23.7373H115.771ZM122.239 23.3154H120.139V28H117.502V15.2031H122.257C123.769 15.2031 124.935 15.54 125.755 16.2139C126.575 16.8877 126.985 17.8398 126.985 19.0703C126.985 19.9434 126.795 20.6729 126.414 21.2588C126.039 21.8389 125.468 22.3018 124.7 22.6475L127.469 27.877V28H124.639L122.239 23.3154ZM120.139 21.1797H122.266C122.928 21.1797 123.44 21.0127 123.804 20.6787C124.167 20.3389 124.349 19.873 124.349 19.2812C124.349 18.6777 124.176 18.2031 123.83 17.8574C123.49 17.5117 122.966 17.3389 122.257 17.3389H120.139V21.1797ZM131.802 28H129.165V15.2031H131.802V28ZM136.891 23.4912V28H134.254V15.2031H139.246C140.207 15.2031 141.051 15.3789 141.777 15.7305C142.51 16.082 143.072 16.583 143.465 17.2334C143.857 17.8779 144.054 18.6133 144.054 19.4395C144.054 20.6934 143.623 21.6836 142.762 22.4102C141.906 23.1309 140.72 23.4912 139.202 23.4912H136.891ZM136.891 21.3555H139.246C139.943 21.3555 140.474 21.1914 140.837 20.8633C141.206 20.5352 141.391 20.0664 141.391 19.457C141.391 18.8301 141.206 18.3232 140.837 17.9365C140.468 17.5498 139.958 17.3506 139.308 17.3389H136.891V21.3555ZM155.506 17.3389H151.586V28H148.949V17.3389H145.082V15.2031H155.506V17.3389Z" fill="black"/>
<rect x="4" y="53" width="180" height="11" fill="#8700FF"/>
<path d="M16.625 7.625H44.375V35.375H16.625V7.625ZM42.101 28.7566C41.8991 27.4909 41.0743 26.4272 38.6292 25.4343C37.7782 25.035 36.8332 24.7591 36.5495 24.1177C36.4447 23.7354 36.4293 23.5288 36.4971 23.3022C36.6713 22.556 37.5562 22.3325 38.25 22.5391C38.7017 22.6778 39.1179 23.0247 39.3785 23.5813C40.5733 22.7996 40.5733 22.7996 41.4073 22.2801C41.0943 21.796 40.9386 21.5848 40.7305 21.3767C40.0013 20.5627 39.03 20.1464 37.4529 20.1819L36.6389 20.2852C35.8573 20.4763 35.1111 20.8941 34.661 21.4476C33.3428 22.9399 33.7236 25.5407 35.3193 26.6183C36.8964 27.7977 39.2058 28.0567 39.5002 29.1667C39.7777 30.5203 38.4951 30.9535 37.2263 30.7978C36.2905 30.5881 35.7694 30.121 35.1975 29.253L33.0823 30.4679C33.3243 31.0213 33.6018 31.2649 34.0181 31.7505C36.03 33.7794 41.0604 33.6761 41.9623 30.5881C41.9947 30.4848 42.2398 29.7741 42.0486 28.6811L42.101 28.7566V28.7566ZM31.7148 20.3792H29.1156C29.1156 22.6192 29.1048 24.847 29.1048 27.0916C29.1048 28.5161 29.1772 29.8235 28.9445 30.2258C28.5637 31.0229 27.5785 30.9211 27.133 30.7793C26.6751 30.5542 26.4423 30.2412 26.1725 29.7911C26.1001 29.6708 26.0461 29.566 26.0261 29.566L23.9171 30.8672C24.2701 31.5964 24.785 32.2223 25.4495 32.62C26.4377 33.2105 27.7651 33.4017 29.1557 33.0902C30.0622 32.8282 30.8438 32.2901 31.2492 31.4576C31.8412 30.3831 31.7148 29.0634 31.7102 27.5896C31.7225 25.2139 31.7102 22.8366 31.7102 20.444L31.7148 20.3792Z" fill="#8700FF"/>
</g>
<defs>
<filter id="filter0_d_2_10" x="0" y="0" width="631" height="72" filterUnits="userSpaceOnUse" color-interpolation-filters="sRGB">
<feFlood flood-opacity="0" result="BackgroundImageFix"/>
<feColorMatrix in="SourceAlpha" type="matrix" values="0 0 0 0 0 0 0 0 0 0 0 0 0 0 0 0 0 0 127 0" result="hardAlpha"/>
<feOffset dy="4"/>
<feGaussianBlur stdDeviation="2"/>
<feComposite in2="hardAlpha" operator="out"/>
<feColorMatrix type="matrix" values="0 0 0 0 0 0 0 0 0 0 0 0 0 0 0 0 0 0 0.4 0"/>
<feBlend mode="normal" in2="BackgroundImageFix" result="effect1_dropShadow_2_10"/>
<feBlend mode="normal" in="SourceGraphic" in2="effect1_dropShadow_2_10" result="shape"/>
</filter>
</defs>
</svg>
