<svg width="631" height="72" viewBox="0 0 631 72" fill="none" xmlns="http://www.w3.org/2000/svg">
<g filter="url(#filter0_d_2_10)">
<rect x="4" width="623" height="64" rx="9" fill="white"/>
<path d="M586.642 28H577.87V26.2598L582.01 21.8477C582.578 21.2266 582.997 20.6846 583.267 20.2217C583.542 19.7588 583.68 19.3193 583.68 18.9033C583.68 18.335 583.536 17.8896 583.249 17.5674C582.962 17.2393 582.552 17.0752 582.019 17.0752C581.444 17.0752 580.99 17.2744 580.656 17.6729C580.328 18.0654 580.164 18.584 580.164 19.2285H577.615C577.615 18.4492 577.8 17.7373 578.169 17.0928C578.544 16.4482 579.071 15.9443 579.751 15.5811C580.431 15.2119 581.201 15.0273 582.062 15.0273C583.381 15.0273 584.403 15.3438 585.13 15.9766C585.862 16.6094 586.229 17.5029 586.229 18.6572C586.229 19.29 586.064 19.9346 585.736 20.5908C585.408 21.2471 584.846 22.0117 584.049 22.8848L581.14 25.9521H586.642V28ZM596.819 22.709C596.819 24.4785 596.453 25.832 595.721 26.7695C594.988 27.707 593.916 28.1758 592.504 28.1758C591.109 28.1758 590.043 27.7158 589.305 26.7959C588.566 25.876 588.188 24.5576 588.171 22.8408V20.4854C588.171 18.6982 588.54 17.3418 589.278 16.416C590.022 15.4902 591.092 15.0273 592.486 15.0273C593.881 15.0273 594.947 15.4873 595.686 16.4072C596.424 17.3213 596.802 18.6367 596.819 20.3535V22.709ZM594.279 20.125C594.279 19.0645 594.133 18.2939 593.84 17.8135C593.553 17.3271 593.102 17.084 592.486 17.084C591.889 17.084 591.446 17.3154 591.159 17.7783C590.878 18.2354 590.729 18.9531 590.711 19.9316V23.043C590.711 24.0859 590.852 24.8623 591.133 25.3721C591.42 25.876 591.877 26.1279 592.504 26.1279C593.125 26.1279 593.573 25.8848 593.849 25.3984C594.124 24.9121 594.268 24.168 594.279 23.166V20.125ZM598.507 17.6641C598.507 16.8789 598.762 16.2432 599.271 15.7568C599.781 15.2646 600.449 15.0186 601.275 15.0186C602.113 15.0186 602.787 15.2617 603.297 15.748C603.807 16.2285 604.062 16.8818 604.062 17.708V18.3408C604.062 19.1318 603.807 19.7676 603.297 20.248C602.787 20.7285 602.119 20.9688 601.293 20.9688C600.461 20.9688 599.787 20.7285 599.271 20.248C598.762 19.7617 598.507 19.1084 598.507 18.2881V17.6641ZM600.194 18.3408C600.194 18.6924 600.294 18.9766 600.493 19.1934C600.698 19.4043 600.965 19.5098 601.293 19.5098C601.621 19.5098 601.882 19.4014 602.075 19.1846C602.269 18.9678 602.365 18.6777 602.365 18.3145V17.6641C602.365 17.3125 602.269 17.0283 602.075 16.8115C601.882 16.5947 601.615 16.4863 601.275 16.4863C600.953 16.4863 600.692 16.5947 600.493 16.8115C600.294 17.0225 600.194 17.3184 600.194 17.6992V18.3408ZM604.624 24.8623C604.624 24.0713 604.882 23.4355 605.397 22.9551C605.913 22.4688 606.581 22.2256 607.401 22.2256C608.233 22.2256 608.904 22.4658 609.414 22.9463C609.93 23.4209 610.188 24.0771 610.188 24.915V25.5479C610.188 26.333 609.936 26.9688 609.432 27.4551C608.928 27.9355 608.257 28.1758 607.419 28.1758C606.575 28.1758 605.898 27.9326 605.389 27.4463C604.879 26.96 604.624 26.3154 604.624 25.5127V24.8623ZM606.312 25.5479C606.312 25.8701 606.417 26.1455 606.628 26.374C606.839 26.6025 607.103 26.7168 607.419 26.7168C608.134 26.7168 608.491 26.3213 608.491 25.5303V24.8623C608.491 24.5107 608.392 24.2295 608.192 24.0186C607.993 23.8018 607.729 23.6934 607.401 23.6934C607.073 23.6934 606.81 23.8018 606.61 24.0186C606.411 24.2295 606.312 24.5195 606.312 24.8887V25.5479ZM601.794 27.042L600.555 26.374L606.804 16.3721L608.043 17.04L601.794 27.042Z" fill="black"/>
<path d="M54.8799 23.3154H52.7793V28H50.1426V15.2031H54.8975C56.4092 15.2031 57.5752 15.54 58.3955 16.2139C59.2158 16.8877 59.626 17.8398 59.626 19.0703C59.626 19.9434 59.4355 20.6729 59.0547 21.2588C58.6797 21.8389 58.1084 22.3018 57.3408 22.6475L60.1094 27.877V28H57.2793L54.8799 23.3154ZM52.7793 21.1797H54.9062C55.5684 21.1797 56.0811 21.0127 56.4443 20.6787C56.8076 20.3389 56.9893 19.873 56.9893 19.2812C56.9893 18.6777 56.8164 18.2031 56.4707 17.8574C56.1309 17.5117 55.6064 17.3389 54.8975 17.3389H52.7793V21.1797ZM69.3379 22.4541H64.2754V25.8818H70.2168V28H61.6387V15.2031H70.1992V17.3389H64.2754V20.3887H69.3379V22.4541ZM78.9883 25.3633H74.3652L73.4863 28H70.6826L75.4463 15.2031H77.8896L82.6797 28H79.876L78.9883 25.3633ZM75.0771 23.2275H78.2764L76.668 18.4375L75.0771 23.2275ZM93.7275 23.7373C93.6279 25.1143 93.1182 26.1982 92.1982 26.9893C91.2842 27.7803 90.0771 28.1758 88.5771 28.1758C86.9365 28.1758 85.6445 27.625 84.7012 26.5234C83.7637 25.416 83.2949 23.8984 83.2949 21.9707V21.1885C83.2949 19.958 83.5117 18.874 83.9453 17.9365C84.3789 16.999 84.9971 16.2812 85.7998 15.7832C86.6084 15.2793 87.5459 15.0273 88.6123 15.0273C90.0889 15.0273 91.2783 15.4229 92.1807 16.2139C93.083 17.0049 93.6045 18.1152 93.7451 19.5449H91.1084C91.0439 18.7188 90.8125 18.1211 90.4141 17.752C90.0215 17.377 89.4209 17.1895 88.6123 17.1895C87.7334 17.1895 87.0742 17.5059 86.6348 18.1387C86.2012 18.7656 85.9785 19.7412 85.9668 21.0654V22.0322C85.9668 23.415 86.1748 24.4258 86.5908 25.0645C87.0127 25.7031 87.6748 26.0225 88.5771 26.0225C89.3916 26.0225 89.998 25.8379 90.3965 25.4688C90.8008 25.0938 91.0322 24.5166 91.0908 23.7373H93.7275ZM104.828 17.3389H100.908V28H98.2715V17.3389H94.4043V15.2031H104.828V17.3389Z" fill="black"/>
<rect x="4" y="53" width="128" height="11" fill="#8700FF"/>
<path d="M30.5 23.0879C32.0198 23.0879 33.2519 21.8559 33.2519 20.336C33.2519 18.8162 32.0198 17.5842 30.5 17.5842C28.9802 17.5842 27.7481 18.8162 27.7481 20.336C27.7481 21.8559 28.9802 23.0879 30.5 23.0879Z" fill="#8700FF"/>
<path d="M22.7948 25.8074L22.1858 25.6517C17.6626 24.5093 15.0679 22.5668 15.0679 20.3299C15.0679 18.0914 17.6641 16.1504 22.1858 15.008L22.7948 14.8539L22.9659 15.4567C23.4231 17.0349 24.0088 18.5729 24.7172 20.0555L24.8483 20.3299L24.7172 20.6043C24.0081 22.0889 23.4207 23.6275 22.9659 25.2062L22.7948 25.8074V25.8074ZM21.9052 16.411C18.4688 17.3791 16.3583 18.856 16.3583 20.3299C16.3583 21.8006 18.4673 23.2791 21.9052 24.2457C22.3261 22.9075 22.8348 21.5987 23.4238 20.3299C22.8306 19.059 22.3233 17.7497 21.9052 16.411V16.411ZM38.2037 25.8074L38.0341 25.2031C37.5758 23.6246 36.9895 22.086 36.2813 20.6027L36.1502 20.3299L36.2813 20.0539C36.9904 18.5724 37.5747 17.0322 38.0341 15.4536L38.2037 14.8523L38.8127 15.0065C43.3375 16.1489 45.9306 18.0898 45.9306 20.3299C45.9306 22.5684 43.3359 24.5093 38.8127 25.6517L38.2037 25.8074V25.8074ZM37.5716 20.3299C38.1883 21.665 38.7017 22.9785 39.0933 24.2457C42.5312 23.2791 44.6417 21.8006 44.6417 20.3299C44.6417 18.856 42.5327 17.3807 39.0933 16.411C38.6728 17.7493 38.1645 19.0585 37.5716 20.3299V20.3299Z" fill="#8700FF"/>
<path d="M21.896 16.4048L21.7264 15.8035C20.453 11.3204 20.8384 8.10909 22.7855 6.98984C24.6895 5.88754 27.7528 7.19025 30.961 10.4817L31.3988 10.9319L30.961 11.3805C29.8215 12.5656 28.78 13.8411 27.8468 15.1946L27.6726 15.4443L27.3704 15.469C25.7295 15.5979 24.1017 15.8603 22.5034 16.2537L21.896 16.4048V16.4048ZM24.3349 7.88092C23.9896 7.88092 23.6843 7.95646 23.4268 8.10446C22.1503 8.83984 21.9253 11.4005 22.804 14.857C24.1776 14.5533 25.5636 14.3359 26.9603 14.2141C27.769 13.0672 28.6511 11.9739 29.6012 10.9411C27.5924 8.98784 25.6962 7.88092 24.3349 7.88092V7.88092ZM36.6636 34.0646C34.8321 34.0646 32.4795 32.6833 30.0375 30.1765L29.6012 29.7279L30.0375 29.2808C31.1772 28.0938 32.2191 26.8168 33.1532 25.4621L33.3259 25.2154L33.625 25.1861C35.2665 25.0595 36.8949 24.7981 38.4936 24.4045L39.1025 24.2503L39.2736 24.8531C40.5409 29.3332 40.157 32.5491 38.213 33.6684C37.741 33.9359 37.2061 34.0727 36.6636 34.0646V34.0646ZM31.3988 29.7171C33.4061 31.6704 35.3038 32.7788 36.6636 32.7788C37.0105 32.7788 37.3157 32.7018 37.5716 32.5553C38.8497 31.8184 39.0763 29.253 38.1945 25.7966C36.8224 26.1019 35.4349 26.3208 34.0351 26.4426C33.2299 27.5913 32.3492 28.6852 31.3988 29.7171V29.7171Z" fill="#8700FF"/>
<path d="M39.1025 16.4048L38.4935 16.2522C36.8949 15.8576 35.2666 15.5951 33.625 15.4675L33.3259 15.4412L33.1532 15.1915C32.2204 13.8373 31.1784 12.5617 30.0375 11.3774L29.6012 10.9288L30.0375 10.4817C33.2442 7.19179 36.3059 5.88908 38.213 6.98983C40.1585 8.11062 40.5455 11.3219 39.2736 15.8035L39.1025 16.4048ZM34.035 14.2141C35.5058 14.3451 36.8995 14.5656 38.1945 14.857C39.0748 11.4005 38.8497 8.83983 37.5716 8.10292C36.3013 7.36754 33.9102 8.49296 31.3988 10.9411C32.3485 11.974 33.2303 13.0655 34.035 14.2141ZM24.3349 34.0646C23.7924 34.0723 23.2577 33.9356 22.7855 33.6684C20.8384 32.5491 20.453 29.3348 21.7248 24.8531L21.8913 24.2503L22.5003 24.4045C23.9865 24.7791 25.6237 25.0428 27.3689 25.1861L27.668 25.2154L27.8422 25.4621C28.7733 26.8157 29.8155 28.0937 30.9563 29.2808L31.3942 29.7279L30.9563 30.1765C28.5159 32.6848 26.1633 34.0646 24.3349 34.0646V34.0646ZM22.804 25.7982C21.9253 29.2546 22.1503 31.8199 23.4268 32.5568C24.6987 33.2814 27.0821 32.1637 29.6012 29.7171C28.6515 28.684 27.7693 27.5908 26.9603 26.4441C25.5622 26.3205 24.1737 26.1047 22.804 25.7982V25.7982Z" fill="#8700FF"/>
<path d="M30.5 26.6075C29.4409 26.6075 28.354 26.5628 27.2625 26.4719L26.9603 26.4457L26.7861 26.1959C26.1706 25.3108 25.5915 24.401 25.0502 23.4687C24.5129 22.5339 24.0135 21.5778 23.5532 20.6028L23.4237 20.3299L23.5532 20.0539C24.0142 19.0796 24.5122 18.1238 25.0502 17.1895C25.5852 16.2707 26.1694 15.3518 26.7861 14.4608L26.9603 14.2141L27.2625 14.1863C29.416 14.006 31.5809 14.006 33.7344 14.1863L34.0335 14.2156L34.2077 14.4623C35.4407 16.2333 36.5236 18.1042 37.4452 20.0555L37.5732 20.3314L37.4452 20.6043C36.5262 22.5569 35.4431 24.428 34.2077 26.1975L34.0335 26.4472L33.7344 26.4734C32.646 26.5613 31.5576 26.6075 30.5 26.6075V26.6075ZM27.6726 25.2139C29.5765 25.3573 31.4234 25.3573 33.3259 25.2139C34.3879 23.6587 35.332 22.0261 36.1502 20.3299C35.3349 18.6321 34.3907 16.9994 33.3259 15.4459C31.4442 15.301 29.5542 15.301 27.6726 15.4459C26.6069 16.9988 25.6626 18.6316 24.8482 20.3299C25.6682 22.0252 26.6122 23.6576 27.6726 25.2139V25.2139Z" fill="#8700FF"/>
</g>
<defs>
<filter id="filter0_d_2_10" x="0" y="0" width="631" height="72" filterUnits="userSpaceOnUse" color-interpolation-filters="sRGB">
<feFlood flood-opacity="0" result="BackgroundImageFix"/>
<feColorMatrix in="SourceAlpha" type="matrix" values="0 0 0 0 0 0 0 0 0 0 0 0 0 0 0 0 0 0 127 0" result="hardAlpha"/>
<feOffset dy="4"/>
<feGaussianBlur stdDeviation="2"/>
<feComposite in2="hardAlpha" operator="out"/>
<feColorMatrix type="matrix" values="0 0 0 0 0 0 0 0 0 0 0 0 0 0 0 0 0 0 0.4 0"/>
<feBlend mode="normal" in2="BackgroundImageFix" result="effect1_dropShadow_2_10"/>
<feBlend mode="normal" in="SourceGraphic" in2="effect1_dropShadow_2_10" result="shape"/>
</filter>
</defs>
</svg>
